<svg width="123" height="23" viewBox="0 0 123 23" fill="none" xmlns="http://www.w3.org/2000/svg">
<path d="M6.34393 14.9725C6.94798 14.9725 7.44075 14.8851 7.82225 14.7103C8.21965 14.5195 8.52168 14.2731 8.72832 13.9711C8.95087 13.6532 9.10188 13.2955 9.18136 12.8981C9.26084 12.4848 9.30058 12.0636 9.30058 11.6344V11.2052H12.448V11.6344C12.448 13.6214 11.9234 15.1553 10.8743 16.2363C9.84104 17.3013 8.33093 17.8338 6.34393 17.8338C4.43642 17.8338 2.9263 17.2536 1.81358 16.0932C0.700867 14.9328 0.144509 13.2399 0.144509 11.0145V7.2948C0.144509 6.22977 0.287572 5.27601 0.573699 4.43352C0.859827 3.57514 1.27312 2.85983 1.81358 2.28757C2.35405 1.69942 3.00578 1.25433 3.76879 0.952312C4.53179 0.634392 5.39017 0.475432 6.34393 0.475432C7.32948 0.475432 8.20376 0.618496 8.96676 0.904623C9.72977 1.19075 10.3656 1.60404 10.8743 2.14451C11.3988 2.68497 11.7883 3.3367 12.0426 4.09971C12.3129 4.86272 12.448 5.7211 12.448 6.67485V7.10405H9.30058V6.67485C9.30058 6.27746 9.25289 5.88006 9.15752 5.48266C9.06214 5.08526 8.90318 4.7276 8.68064 4.40968C8.45809 4.09176 8.15607 3.83743 7.77457 3.64668C7.39306 3.44003 6.91619 3.3367 6.34393 3.3367C5.81936 3.3367 5.36633 3.44003 4.98483 3.64668C4.60332 3.83743 4.28541 4.10766 4.03107 4.45737C3.77673 4.79118 3.58598 5.18858 3.45882 5.64957C3.34754 6.09465 3.29191 6.56358 3.29191 7.05636V11.2529C3.29191 11.7934 3.34754 12.2941 3.45882 12.7551C3.57009 13.2001 3.74494 13.5896 3.98338 13.9234C4.22182 14.2572 4.53179 14.5195 4.9133 14.7103C5.31069 14.8851 5.78757 14.9725 6.34393 14.9725ZM21.0867 5.67341H24.0911V20.409C24.0911 20.9494 23.9162 21.3945 23.5665 21.7442C23.2327 22.0939 22.7956 22.2688 22.2551 22.2688H15.2211V19.4075H20.443C20.8721 19.4075 21.0867 19.1691 21.0867 18.6922V15.7832H20.6576C20.133 17.1503 19.0044 17.8338 17.2717 17.8338C16.6836 17.8338 16.1352 17.7384 15.6265 17.5477C15.1178 17.3569 14.6727 17.0629 14.2912 16.6655C13.9097 16.2681 13.6077 15.7753 13.3852 15.1871C13.1785 14.5831 13.0752 13.8757 13.0752 13.065V5.67341H16.0795V12.4451C16.0795 13.2876 16.2782 13.9473 16.6756 14.4241C17.073 14.8851 17.6691 15.1156 18.4639 15.1156C19.37 15.1156 20.0297 14.8295 20.443 14.2572C20.8721 13.6691 21.0867 12.8743 21.0867 11.8728V5.67341ZM27.7942 17.5H24.7898V0.809247H27.7942V7.39017H28.2233C28.5413 6.73844 29.0022 6.23772 29.6063 5.88801C30.2103 5.5224 30.9813 5.33959 31.9192 5.33959C32.6186 5.33959 33.2783 5.47471 33.8982 5.74494C34.534 6.01517 35.0824 6.41257 35.5434 6.93714C36.0203 7.44581 36.3939 8.0737 36.6641 8.82081C36.9502 9.56792 37.0933 10.4184 37.0933 11.3721V11.8013C37.0933 12.771 36.9582 13.6293 36.6879 14.3764C36.4177 15.1236 36.0521 15.7594 35.5911 16.284C35.1301 16.7926 34.5817 17.1821 33.9459 17.4523C33.3259 17.7066 32.6504 17.8338 31.9192 17.8338C31.3787 17.8338 30.9098 17.7782 30.5124 17.6669C30.115 17.5556 29.7653 17.4046 29.4632 17.2139C29.1771 17.0231 28.9307 16.8085 28.7241 16.5701C28.5333 16.3158 28.3664 16.0535 28.2233 15.7832H27.7942V17.5ZM30.9416 14.9725C31.8794 14.9725 32.6345 14.6864 33.2067 14.1142C33.7949 13.526 34.089 12.7312 34.089 11.7298V11.4436C34.089 10.4422 33.7949 9.65535 33.2067 9.08309C32.6345 8.49494 31.8794 8.20087 30.9416 8.20087C30.0037 8.20087 29.2407 8.50289 28.6525 9.10694C28.0803 9.69509 27.7942 10.474 27.7942 11.4436V11.7298C27.7942 12.6994 28.0803 13.4863 28.6525 14.0903C29.2407 14.6785 30.0037 14.9725 30.9416 14.9725ZM40.1526 12.5643C40.1685 12.914 40.248 13.2399 40.391 13.5419C40.55 13.828 40.7566 14.0824 41.011 14.3049C41.2812 14.5116 41.5832 14.6785 41.917 14.8056C42.2667 14.9169 42.6323 14.9725 43.0138 14.9725C43.761 14.9725 44.3332 14.8454 44.7306 14.591C45.128 14.3208 45.4141 14.0029 45.589 13.6373L48.1641 15.0679C48.0211 15.3699 47.8224 15.6879 47.568 16.0217C47.3137 16.3396 46.9799 16.6337 46.5666 16.9039C46.1692 17.1741 45.6764 17.3967 45.0883 17.5715C44.516 17.7464 43.8404 17.8338 43.0615 17.8338C42.1714 17.8338 41.3607 17.6908 40.6295 17.4046C39.8982 17.1185 39.2624 16.7052 38.7219 16.1647C38.1974 15.6243 37.7841 14.9646 37.4821 14.1857C37.1959 13.4068 37.0529 12.5246 37.0529 11.539V11.396C37.0529 10.4899 37.2039 9.66329 37.5059 8.91618C37.8238 8.16907 38.253 7.53324 38.7935 7.00867C39.3339 6.4841 39.9618 6.07876 40.6771 5.79263C41.4084 5.49061 42.1873 5.33959 43.0138 5.33959C44.0312 5.33959 44.9055 5.5224 45.6367 5.88801C46.3679 6.23772 46.9719 6.69075 47.4488 7.24711C47.9257 7.78757 48.2754 8.39162 48.498 9.05925C48.7205 9.71098 48.8318 10.3468 48.8318 10.9668V12.5643H40.1526ZM42.99 8.0578C42.227 8.0578 41.6071 8.2565 41.1302 8.6539C40.6533 9.0354 40.3433 9.48049 40.2003 9.98916H45.7797C45.6844 9.4328 45.3823 8.97182 44.8737 8.60621C44.3809 8.24061 43.753 8.0578 42.99 8.0578ZM49.149 5.67341H54.1562V7.39017H54.5854C54.808 6.73844 55.1815 6.23772 55.7061 5.88801C56.2465 5.5224 56.8903 5.33959 57.6374 5.33959C58.8137 5.33959 59.7595 5.71315 60.4749 6.46026C61.1902 7.19147 61.5478 8.31214 61.5478 9.82225V10.3468L58.4481 10.6329V10.2991C58.4481 9.6474 58.2812 9.13078 57.9474 8.74928C57.6136 8.35188 57.1129 8.15318 56.4452 8.15318C55.7776 8.15318 55.253 8.38367 54.8715 8.84465C54.49 9.30564 54.2993 9.96532 54.2993 10.8237V14.6387H57.0175V17.5H48.8629V14.6387H51.295V8.53468H49.149V5.67341ZM61.3644 0.809247H73.3817V3.81358H68.9467V17.5H65.7993V3.81358H61.3644V0.809247ZM73.5797 5.67341H78.5869V7.39017H79.0161C79.2387 6.73844 79.6122 6.23772 80.1368 5.88801C80.6773 5.5224 81.321 5.33959 82.0682 5.33959C83.2445 5.33959 84.1903 5.71315 84.9056 6.46026C85.6209 7.19147 85.9786 8.31214 85.9786 9.82225V10.3468L82.8789 10.6329V10.2991C82.8789 9.6474 82.7119 9.13078 82.3781 8.74928C82.0443 8.35188 81.5436 8.15318 80.876 8.15318C80.2083 8.15318 79.6838 8.38367 79.3023 8.84465C78.9208 9.30564 78.73 9.96532 78.73 10.8237V14.6387H81.4482V17.5H73.2936V14.6387H75.7257V8.53468H73.5797V5.67341ZM94.0212 15.7832C93.7033 16.5303 93.2582 17.0629 92.686 17.3808C92.1137 17.6828 91.4461 17.8338 90.6831 17.8338C89.9678 17.8338 89.2922 17.6987 88.6563 17.4285C88.0364 17.1582 87.488 16.7608 87.0111 16.2363C86.5342 15.7117 86.1527 15.0759 85.8666 14.3288C85.5964 13.5816 85.4613 12.7312 85.4613 11.7775V11.396C85.4613 10.4581 85.5964 9.61561 85.8666 8.8685C86.1368 8.12139 86.5024 7.48555 86.9634 6.96098C87.4244 6.43642 87.9569 6.03902 88.561 5.76879C89.1809 5.48266 89.8406 5.33959 90.54 5.33959C91.3825 5.33959 92.0581 5.48266 92.5667 5.76879C93.0913 6.05491 93.5046 6.5 93.8066 7.10405H94.2358V5.67341H97.2402V13.9234C97.2402 14.4003 97.4548 14.6387 97.8839 14.6387H98.337V17.5H96.2864C95.7459 17.5 95.3009 17.341 94.9511 17.0231C94.6173 16.7052 94.4504 16.2919 94.4504 15.7832H94.0212ZM91.3507 14.9725C92.225 14.9725 92.9244 14.6864 93.449 14.1142C93.9735 13.526 94.2358 12.7312 94.2358 11.7298V11.4436C94.2358 10.4422 93.9735 9.65535 93.449 9.08309C92.9244 8.49494 92.225 8.20087 91.3507 8.20087C90.4764 8.20087 89.777 8.49494 89.2524 9.08309C88.7279 9.65535 88.4656 10.4422 88.4656 11.4436V11.7298C88.4656 12.7312 88.7279 13.526 89.2524 14.1142C89.777 14.6864 90.4764 14.9725 91.3507 14.9725ZM110.123 13.1604C109.853 14.5592 109.209 15.6879 108.192 16.5462C107.19 17.4046 105.847 17.8338 104.162 17.8338C103.288 17.8338 102.469 17.6987 101.706 17.4285C100.959 17.1582 100.307 16.7688 99.751 16.2601C99.1947 15.7514 98.7575 15.1236 98.4396 14.3764C98.1217 13.6293 97.9627 12.7789 97.9627 11.8251V11.539C97.9627 10.5853 98.1217 9.72688 98.4396 8.96387C98.7575 8.20087 99.1947 7.54913 99.751 7.00867C100.323 6.46821 100.983 6.05491 101.73 5.76879C102.493 5.48266 103.304 5.33959 104.162 5.33959C105.815 5.33959 107.151 5.76878 108.168 6.62717C109.201 7.48555 109.853 8.61416 110.123 10.013L107.166 10.776C107.071 10.0766 106.769 9.47254 106.26 8.96387C105.752 8.4552 105.036 8.20087 104.114 8.20087C103.685 8.20087 103.28 8.28035 102.898 8.43931C102.517 8.59827 102.183 8.82876 101.897 9.13078C101.611 9.41691 101.38 9.77457 101.206 10.2038C101.047 10.6171 100.967 11.086 100.967 11.6105V11.7536C100.967 12.2782 101.047 12.7471 101.206 13.1604C101.38 13.5578 101.611 13.8916 101.897 14.1618C102.183 14.4321 102.517 14.6387 102.898 14.7818C103.28 14.909 103.685 14.9725 104.114 14.9725C105.036 14.9725 105.736 14.7421 106.213 14.2811C106.706 13.8201 107.023 13.2001 107.166 12.4212L110.123 13.1604ZM114.756 10.013H115.328L118.476 5.67341H121.766V5.81647L117.951 11.229V11.6582L122.148 17.3569V17.5H118.714L115.328 12.8743H114.756V17.5H111.752V0.809247H114.756V10.013Z" fill="url(#paint0_linear_301_2834)"/>
<defs>
<linearGradient id="paint0_linear_301_2834" x1="161.129" y1="19.5572" x2="145.74" y2="-25.7941" gradientUnits="userSpaceOnUse">
<stop stop-color="#3B3B3B"/>
</linearGradient>
</defs>
</svg>
