<svg width="105" height="52" viewBox="0 0 105 52" fill="none" xmlns="http://www.w3.org/2000/svg">
<path d="M25.1824 29H22.7824C22.4524 29 22.0624 28.76 21.7024 28.43C21.6124 28.34 21.5524 28.31 21.4924 28.31C21.4024 28.31 21.3724 28.37 21.3724 28.46C21.3724 28.55 21.4024 28.64 21.4924 28.73C21.8224 29.24 22.0924 29.69 22.2424 30.02C22.3924 30.35 22.4524 30.74 22.4524 31.13C22.4524 33.56 19.6924 35.66 17.6824 36.38C16.5124 36.83 14.9824 37.1 13.3024 37.1C11.3824 37.1 9.43242 36.68 7.75242 35.6C5.80242 34.28 5.20242 32.33 5.20242 30.29C5.20242 29.06 5.41242 27.8 5.68242 26.6C5.77242 26.45 7.48242 26.09 8.41242 25.94C9.46242 25.7 8.32242 27.14 8.41242 28.58L8.38242 29.15C8.38242 30.92 8.89242 31.64 10.1824 32.33C11.0224 32.84 12.3424 33.05 13.6924 33.05C15.2224 33.05 16.7824 32.78 17.6524 32.39C18.7624 31.88 19.2124 31.46 19.2124 30.98C19.2124 30.41 18.5524 29.78 17.5024 28.94C16.9024 28.46 16.0024 27.8 14.8924 27.11C14.8624 27.08 14.8324 27.02 14.8324 26.99C14.8324 26.24 17.1124 22.88 17.2624 22.88C19.9024 24.17 21.0124 24.53 23.6524 24.53H25.1824V29ZM18.5524 40.46L18.5224 40.4C18.5524 40.43 18.5524 40.46 18.5524 40.49C18.5524 40.91 16.7524 42.23 16.0924 42.8C15.8524 42.71 14.7724 41.54 14.0824 40.7C13.3924 41.48 11.7424 42.83 11.6524 42.74C11.3224 42.5 9.43242 40.37 9.37242 40.22C9.31242 40.16 11.5324 37.94 11.9824 37.94H12.0124C12.1624 38.09 13.1524 39.2 13.8724 39.98C14.6524 39.26 16.1524 37.97 16.3324 37.97C16.6624 38.3 18.4924 40.25 18.5524 40.46ZM35.5352 25.73C35.5352 26.48 35.4152 27.26 35.2652 28.07C35.1752 28.55 33.6752 30.62 33.1952 31.1C31.3352 29 29.2352 29 26.7752 29H23.8652V24.53H25.9652C26.2952 23.18 26.6552 21.8 27.2852 20.69C28.2752 18.89 29.7752 17.9 31.2452 17.9C32.2052 17.9 33.1952 18.35 34.0052 19.34C35.1152 20.66 35.5352 23.36 35.5352 25.73ZM33.1352 25.73V25.55C33.1352 24.44 32.8952 23.51 32.4452 22.76C32.0252 22.01 31.4852 21.65 30.8552 21.65C30.2552 21.65 29.6852 21.98 29.1452 22.61C28.7852 23.03 28.4552 23.66 28.1852 24.53C29.4752 24.53 31.2152 24.65 33.1352 25.73ZM45.4238 29H40.5938C40.4138 29 39.0638 27.5 38.8538 27.14C38.8538 26.69 38.1938 11.54 38.1938 10.85C38.1938 10.61 41.9438 9.32 41.8838 9.2C41.8838 9.77 41.8838 10.28 41.9138 10.85C41.9138 11.78 41.9438 12.92 41.9438 13.76V16.88C41.9438 20.27 41.8538 23.72 41.8538 24.05V24.14C41.8538 24.47 42.0038 24.53 42.4838 24.53H45.4238V29ZM58.3057 26.06C58.3057 26.45 56.9857 29 56.6257 29H43.8457V24.53H54.9757C53.3557 22.28 49.7557 21.71 47.1757 21.71C46.6957 21.71 46.2157 21.74 45.7357 21.83C45.9757 20.93 46.6057 19.01 46.8457 18.11C47.0857 17.21 47.3257 17.75 47.6857 17.6C48.0157 17.6 48.3757 17.57 48.7057 17.66C52.5457 17.99 56.3557 20.24 57.7957 23.84C58.0657 24.53 58.3057 25.37 58.3057 26.06Z" fill="url(#paint0_linear_62_360)"/>
<path fill-rule="evenodd" clip-rule="evenodd" d="M97.7391 5.21689C97.5566 5.21689 97.3741 5.17465 97.2145 5.09016C92.8348 2.99918 89.0482 2.1121 84.5089 2.1121C79.9924 2.1121 75.704 3.10479 71.8034 5.09016C71.2559 5.36474 70.5716 5.17465 70.2522 4.66774C69.9557 4.16084 70.161 3.50609 70.7084 3.23151C74.9512 1.09829 79.6046 0 84.5089 0C89.3676 0 93.6104 0.992687 98.2637 3.21039C98.834 3.48497 99.0393 4.1186 98.7428 4.6255C98.5375 5.00568 98.1497 5.21689 97.7391 5.21689ZM65.097 16.3053C64.8689 16.3053 64.6407 16.242 64.4354 16.1152C63.9108 15.7773 63.7967 15.1225 64.1617 14.6368C66.42 11.6798 69.2941 9.35651 72.7157 7.73019C79.8783 4.30859 89.0482 4.28747 96.2335 7.70907C99.6551 9.33539 102.529 11.6376 104.788 14.5734C105.153 15.0381 105.038 15.7139 104.514 16.0519C103.989 16.3898 103.282 16.2842 102.917 15.7984C100.864 13.1372 98.2637 11.0462 95.1843 9.58884C88.6376 6.48405 80.2661 6.48405 73.7422 9.60996C70.64 11.0884 68.0395 13.2005 65.9866 15.8618C65.8041 16.1575 65.4619 16.3053 65.097 16.3053ZM79.3536 41.7985C79.0571 41.7985 78.7605 41.6929 78.5552 41.4817C76.5707 39.6442 75.4986 38.4614 73.9703 35.9058C72.3964 33.3079 71.5752 30.1397 71.5752 26.7392C71.5752 20.4663 77.3691 15.355 84.486 15.355C91.603 15.355 97.3969 20.4663 97.3969 26.7392C97.3969 27.3306 96.895 27.7953 96.2563 27.7953C95.6176 27.7953 95.1158 27.3306 95.1158 26.7392C95.1158 21.628 90.3484 17.4671 84.486 17.4671C78.6237 17.4671 73.8562 21.628 73.8562 26.7392C73.8562 29.7807 74.5862 32.5898 75.9776 34.8708C77.4375 37.2997 78.4412 38.3347 80.1976 39.9821C80.631 40.4045 80.631 41.0593 80.1976 41.4817C79.9467 41.6929 79.6502 41.7985 79.3536 41.7985ZM95.709 37.8909C92.9945 37.8909 90.5994 37.2573 88.6376 36.0111C85.2389 33.8779 83.2087 30.4141 83.2087 26.739C83.2087 26.1476 83.7105 25.683 84.3492 25.683C84.9879 25.683 85.4898 26.1476 85.4898 26.739C85.4898 29.7171 87.1321 32.5262 89.915 34.2581C91.5346 35.2719 93.4279 35.7577 95.709 35.7577C96.2564 35.7577 97.1688 35.6943 98.0813 35.5465C98.6972 35.4409 99.2902 35.821 99.4043 36.4124C99.5183 36.9827 99.1077 37.5318 98.4691 37.6374C97.1688 37.8698 96.0283 37.8909 95.709 37.8909ZM91.1239 42.2422C91.0327 42.2422 90.9186 42.221 90.8274 42.1999C87.2005 41.2706 84.8282 40.0245 82.3418 37.7645C79.1483 34.8287 77.3919 30.9213 77.3919 26.7393C77.3919 23.3177 80.5398 20.5298 84.4176 20.5298C88.2954 20.5298 91.4433 23.3177 91.4433 26.7393C91.4433 28.9993 93.5647 30.8368 96.1879 30.8368C98.8111 30.8368 100.933 28.9993 100.933 26.7393C100.933 18.7767 93.519 12.3137 84.3948 12.3137C77.9165 12.3137 71.9857 15.6508 69.3169 20.8255C68.4273 22.5363 67.9711 24.5428 67.9711 26.7393C67.9711 28.3868 68.1307 30.9847 69.4994 34.364C69.7275 34.9132 69.4309 35.5257 68.8379 35.7158C68.2448 35.927 67.5833 35.6313 67.378 35.1033C66.2603 32.3364 65.7128 29.5907 65.7128 26.7393C65.7128 24.2048 66.2375 21.9026 67.2639 19.8961C70.2978 14.0034 77.0269 10.1805 84.3948 10.1805C94.7736 10.1805 103.214 17.5939 103.214 26.7182C103.214 30.1398 100.066 32.9278 96.1879 32.9278C92.3101 32.9278 89.1622 30.1398 89.1622 26.7182C89.1622 24.4583 87.0408 22.6207 84.4176 22.6207C81.7943 22.6207 79.6729 24.4583 79.6729 26.7182C79.6729 30.3299 81.1785 33.7093 83.9385 36.2438C86.1056 38.2292 88.1813 39.3275 91.3976 40.1512C92.0135 40.299 92.3557 40.8904 92.196 41.4396C92.082 41.9253 91.6029 42.2422 91.1239 42.2422Z" fill="url(#paint1_linear_62_360)"/>
<defs>
<linearGradient id="paint0_linear_62_360" x1="32.4492" y1="8" x2="32.4492" y2="44" gradientUnits="userSpaceOnUse">
<stop offset="0.12" stop-color="#2E4CA6"/>
<stop offset="0.93" stop-color="#8DA6F2"/>
</linearGradient>
<linearGradient id="paint1_linear_62_360" x1="84.4746" y1="0" x2="84.4746" y2="42.2422" gradientUnits="userSpaceOnUse">
<stop offset="0.12" stop-color="#2E4CA6"/>
<stop offset="0.93" stop-color="#8DA6F2"/>
</linearGradient>
</defs>
</svg>
